<svg width="54" height="54" viewBox="0 0 54 54" fill="none" xmlns="http://www.w3.org/2000/svg">
<rect width="54" height="54" rx="8" fill="#40ADA2" fill-opacity="0.16"/>
<path d="M24.3333 27C24.3333 27.7072 24.6143 28.3855 25.1144 28.8856C25.6145 29.3857 26.2928 29.6667 27 29.6667C27.7072 29.6667 28.3855 29.3857 28.8856 28.8856C29.3857 28.3855 29.6667 27.7072 29.6667 27C29.6667 26.2928 29.3857 25.6145 28.8856 25.1144C28.3855 24.6143 27.7072 24.3333 27 24.3333C26.2928 24.3333 25.6145 24.6143 25.1144 25.1144C24.6143 25.6145 24.3333 26.2928 24.3333 27Z" stroke="#40ADA2" stroke-width="2" stroke-linecap="round" stroke-linejoin="round"/>
<path d="M39 27C35.8 32.3333 31.8 35 27 35C22.2 35 18.2 32.3333 15 27C18.2 21.6667 22.2 19 27 19C31.8 19 35.8 21.6667 39 27Z" stroke="#40ADA2" stroke-width="2" stroke-linecap="round" stroke-linejoin="round"/>
</svg>
