<svg width="20" height="20" viewBox="0 0 20 20" fill="none" xmlns="http://www.w3.org/2000/svg">
<path d="M10 0C15.5228 0 20 4.47715 20 10C20 15.5228 15.5228 20 10 20C4.47715 20 0 15.5228 0 10C0 4.47715 4.47715 0 10 0ZM8.84473 10.6025L4.72754 15.3887H5.65723L9.25781 11.2041L12.1328 15.3887H15.2725L11.0029 9.1748L14.9297 4.61133H13.999L10.5898 8.57324L7.86719 4.61133H4.72754L8.84473 10.6025ZM10.1006 9.14258L10.5176 9.73926L13.999 14.7197H12.5703L9.72949 10.6562L9.31152 10.0586L5.99316 5.31152H7.42188L10.1006 9.14258Z" fill="white"/>
</svg>
