<svg width="20" height="20" viewBox="0 0 20 20" fill="none" xmlns="http://www.w3.org/2000/svg">
<path d="M11.028 0C12.153 0.00299993 12.7239 0.00899978 13.2169 0.0229994L13.4109 0.0299992C13.6349 0.0379991 13.8559 0.0479988 14.1229 0.0599985C15.1868 0.109997 15.9128 0.277993 16.5497 0.524987C17.2097 0.778981 17.7657 1.12297 18.3216 1.67796C18.8303 2.17768 19.2238 2.7824 19.4746 3.44992C19.7216 4.0869 19.8896 4.81288 19.9396 5.87786C19.9516 6.14385 19.9616 6.36485 19.9696 6.58984L19.9756 6.78384C19.9906 7.27582 19.9966 7.84681 19.9986 8.97178L19.9996 9.71776V11.0277C20.002 11.7571 19.9943 12.4865 19.9766 13.2157L19.9706 13.4097C19.9626 13.6347 19.9526 13.8557 19.9406 14.1217C19.8906 15.1866 19.7206 15.9116 19.4746 16.5496C19.2238 17.2171 18.8303 17.8218 18.3216 18.3216C17.8219 18.8302 17.2172 19.2237 16.5497 19.4745C15.9128 19.7215 15.1868 19.8895 14.1229 19.9395L13.4109 19.9695L13.2169 19.9755C12.7239 19.9895 12.153 19.9965 11.028 19.9985L10.282 19.9995H8.97312C8.24341 20.0021 7.51371 19.9944 6.78423 19.9765L6.59024 19.9705C6.35286 19.9615 6.11553 19.9512 5.87827 19.9395C4.81433 19.8895 4.08836 19.7215 3.45039 19.4745C2.78326 19.2236 2.1789 18.8301 1.67948 18.3216C1.17045 17.8219 0.776638 17.2172 0.525542 16.5496C0.278555 15.9126 0.110563 15.1866 0.0605657 14.1217L0.0305672 13.4097L0.0255676 13.2157C0.00713457 12.4865 -0.00119923 11.7571 0.000568768 11.0277V8.97178C-0.00219899 8.2424 0.00513476 7.51302 0.0225677 6.78384L0.0295674 6.58984C0.0375669 6.36485 0.0475664 6.14385 0.0595658 5.87786C0.109563 4.81288 0.277555 4.0879 0.524542 3.44992C0.776224 2.78213 1.17073 2.17738 1.68048 1.67796C2.17961 1.16952 2.78362 0.776055 3.45039 0.524987C4.08836 0.277993 4.81333 0.109997 5.87827 0.0599985C6.14426 0.0479988 6.36625 0.0379991 6.59024 0.0299992L6.78423 0.0239993C7.51338 0.00623256 8.24275 -0.00143466 8.97212 0.000999903L11.028 0ZM10.0001 4.99988C8.67405 4.99988 7.40234 5.52665 6.46471 6.46431C5.52707 7.40197 5.00032 8.67371 5.00032 9.99976C5.00032 11.3258 5.52707 12.5975 6.46471 13.5352C7.40234 14.4729 8.67405 14.9996 10.0001 14.9996C11.3261 14.9996 12.5978 14.4729 13.5354 13.5352C14.4731 12.5975 14.9998 11.3258 14.9998 9.99976C14.9998 8.67371 14.4731 7.40197 13.5354 6.46431C12.5978 5.52665 11.3261 4.99988 10.0001 4.99988ZM10.0001 6.99983C10.394 6.99976 10.7841 7.0773 11.1481 7.228C11.5121 7.3787 11.8428 7.59961 12.1214 7.87814C12.4 8.15666 12.6211 8.48733 12.7719 8.85127C12.9227 9.21522 13.0003 9.6053 13.0004 9.99926C13.0005 10.3932 12.923 10.7833 12.7723 11.1473C12.6216 11.5113 12.4006 11.8421 12.1221 12.1207C11.8436 12.3993 11.513 12.6203 11.149 12.7711C10.7851 12.922 10.395 12.9996 10.0011 12.9997C9.20545 12.9997 8.44243 12.6836 7.87985 12.121C7.31727 11.5584 7.00122 10.7954 7.00122 9.99976C7.00122 9.20413 7.31727 8.44108 7.87985 7.87849C8.44243 7.31589 9.20545 6.99983 10.0011 6.99983M15.2508 3.49992C14.9193 3.49992 14.6014 3.63161 14.367 3.86602C14.1326 4.10044 14.0009 4.41837 14.0009 4.74989C14.0009 5.0814 14.1326 5.39933 14.367 5.63375C14.6014 5.86816 14.9193 5.99986 15.2508 5.99986C15.5823 5.99986 15.9002 5.86816 16.1346 5.63375C16.369 5.39933 16.5007 5.0814 16.5007 4.74989C16.5007 4.41837 16.369 4.10044 16.1346 3.86602C15.9002 3.63161 15.5823 3.49992 15.2508 3.49992Z" fill="white"/>
</svg>
