<svg width="20" height="20" viewBox="0 0 20 20" fill="none" xmlns="http://www.w3.org/2000/svg">
<g clip-path="url(#clip0_231_91)">
<path d="M10 0C15.5228 0 20 4.47719 20 10C20 14.9913 16.3431 19.1287 11.5625 19.8789V12.8906H13.8926L14.3359 10H11.5625V8.12402C11.5626 7.38276 11.903 6.65902 12.9688 6.57129C13.04 6.56543 13.1146 6.5625 13.1924 6.5625H14.4531V4.10156C14.4531 4.10156 14.0059 4.025 13.4033 3.96777C13.042 3.93346 12.6249 3.90626 12.2148 3.90625C10.0019 3.90625 8.53105 5.20552 8.44141 7.56543C8.43852 7.64147 8.4375 7.71864 8.4375 7.79688V10H5.89844V12.8906H8.4375V19.8789C3.65688 19.1287 9.31625e-07 14.9912 0 10C0 4.47719 4.47719 0 10 0Z" fill="white"/>
</g>
<defs>
<clipPath id="clip0_231_91">
<rect width="20" height="20" fill="white"/>
</clipPath>
</defs>
</svg>
