<svg width="140" height="287" viewBox="0 0 140 287" fill="none" xmlns="http://www.w3.org/2000/svg">
<mask id="mask0_231_123" style="mask-type:luminance" maskUnits="userSpaceOnUse" x="0" y="120" width="140" height="47">
<path d="M140 120.524H0V166.476H140V120.524Z" fill="white"/>
</mask>
<g mask="url(#mask0_231_123)">
<mask id="mask1_231_123" style="mask-type:luminance" maskUnits="userSpaceOnUse" x="0" y="120" width="140" height="47">
<path d="M140 120.524H0V166.476H140V120.524Z" fill="white"/>
</mask>
<g mask="url(#mask1_231_123)">
<path d="M32.2276 138.909L14.5656 138.901C12.0462 138.901 10.0038 136.844 10.0038 134.307C10.0038 131.77 12.0462 129.714 14.5656 129.714H38.9319C41.4513 129.714 43.4937 127.655 43.4937 125.118C43.4937 122.581 41.4487 120.524 38.9293 120.524H13.688C6.12717 120.524 0 126.694 0 134.307C0 141.921 6.12717 148.091 13.688 148.091L31.3501 148.099C33.8695 148.099 35.9118 150.155 35.9118 152.692C35.9118 155.229 33.8695 157.286 31.3501 157.286H6.87561C6.85189 157.286 6.83081 157.283 6.80709 157.283C4.2877 157.283 2.24531 159.34 2.24531 161.877C2.24531 164.414 4.2877 166.471 6.80709 166.471V166.479H32.2276C39.7884 166.479 45.9156 160.309 45.9156 152.695C45.9156 145.082 39.7884 138.912 32.2276 138.912" fill="#00AED5"/>
<path d="M140 161.88C140 164.417 137.958 166.474 135.438 166.474C132.919 166.474 130.876 164.417 130.876 161.88C130.876 159.343 132.919 157.287 135.438 157.287C137.958 157.287 140 159.343 140 161.88Z" fill="#F03340"/>
<path d="M108.458 132.02C108.458 130.752 109.48 129.722 110.74 129.722H135.441C137.957 129.717 139.997 127.663 140 125.126C140 122.589 137.957 120.532 135.438 120.532H108.458C103.418 120.532 99.3335 124.645 99.3335 129.722V138.909H108.46V132.017L108.458 132.02Z" fill="#F03340"/>
<path d="M140 145.801C140 143.264 137.957 141.207 135.438 141.207H108.458C103.418 141.207 99.3335 145.32 99.3335 150.397V166.476H108.458V152.695C108.458 151.426 109.48 150.397 110.74 150.397H135.441C137.96 150.394 140 148.338 140 145.803V145.801Z" fill="#F03340"/>
<path d="M94.7722 134.313C94.7722 126.702 88.6423 120.529 81.0838 120.529H55.0257C55.0257 120.529 55.0099 120.529 55.002 120.529C52.4826 120.529 50.4403 122.586 50.4403 125.123C50.4403 125.309 50.4535 125.492 50.4745 125.672V161.333C50.4535 161.514 50.4403 161.697 50.4403 161.882C50.4403 164.419 52.4826 166.476 55.002 166.476H81.0838C88.6445 166.476 94.7722 160.306 94.7722 152.692C94.7722 149.163 93.452 145.941 91.2827 143.503C93.452 141.064 94.7722 137.845 94.7722 134.313ZM80.2092 157.283H59.6007V148.099H80.2092C82.7284 148.099 84.7712 150.156 84.7712 152.692C84.7712 155.23 82.7284 157.286 80.2092 157.286M80.2092 138.909H59.6007V129.722H80.2092C82.7284 129.722 84.7712 131.778 84.7712 134.315C84.7712 136.852 82.7284 138.909 80.2092 138.909Z" fill="#00AED5"/>
</g>
</g>
</svg>
