<svg width="20" height="20" viewBox="0 0 20 20" fill="none" xmlns="http://www.w3.org/2000/svg">
<path d="M10 0C15.5228 0 20 4.47715 20 10C20 15.5228 15.5228 20 10 20C4.47715 20 0 15.5228 0 10C0 4.47715 4.47715 0 10 0ZM10.3311 12.5029C10.3138 12.9968 10.1046 13.4644 9.74902 13.8076C9.39349 14.1508 8.91892 14.343 8.4248 14.3428C7.37975 14.3428 6.51074 13.4885 6.51074 12.4287C6.51099 11.1631 7.73288 10.2136 8.99121 10.6035V8.27832C6.4523 7.9398 4.22972 9.91193 4.22949 12.4287C4.22949 14.8794 6.26069 16.624 8.41699 16.624C10.7279 16.624 12.6045 14.747 12.6045 12.4287V7.7998C13.5266 8.46205 14.6342 8.81738 15.7695 8.81543V6.54102C15.7695 6.54102 14.3857 6.6076 13.3848 5.45215C12.8819 4.87779 12.6044 4.14036 12.6045 3.37695H10.3311V12.5029Z" fill="white"/>
</svg>
